<svg width="48" height="48" viewBox="0 0 48 48" fill="none" xmlns="http://www.w3.org/2000/svg">
<path d="M38.97 40.3091L26.446 27.7851C25.446 28.6371 24.296 29.2964 22.996 29.7631C21.696 30.2297 20.3893 30.4631 19.076 30.4631C15.8733 30.4631 13.1626 29.3544 10.944 27.1371C8.7253 24.9197 7.61597 22.2097 7.61597 19.0071C7.61597 15.8044 8.72397 13.0931 10.94 10.8731C13.156 8.65307 15.8653 7.54173 19.068 7.53907C22.2706 7.5364 24.9826 8.64573 27.204 10.8671C29.4253 13.0884 30.5366 15.7997 30.538 19.0011C30.538 20.3904 30.292 21.7351 29.8 23.0351C29.308 24.3351 28.6613 25.4471 27.86 26.3711L40.384 38.8931L38.97 40.3091ZM19.076 28.4611C21.7293 28.4611 23.97 27.5477 25.798 25.7211C27.626 23.8944 28.5393 21.6537 28.538 18.9991C28.5366 16.3444 27.6233 14.1044 25.798 12.2791C23.9726 10.4537 21.7326 9.5404 19.078 9.53907C16.4233 9.53773 14.1826 10.4511 12.356 12.2791C10.5293 14.1071 9.61597 16.3471 9.61597 18.9991C9.61597 21.6511 10.5293 23.8911 12.356 25.7191C14.1826 27.5471 16.4226 28.4624 19.076 28.4611Z" fill="black"/>
</svg>
