<svg width="33" height="27" viewBox="0 0 33 27" fill="none" xmlns="http://www.w3.org/2000/svg">
<path d="M29.6097 6.63471C29.6315 6.92659 29.6315 7.21679 29.6315 7.507C29.6315 16.3883 22.8256 26.6222 10.3877 26.6222C6.55568 26.6222 2.99573 25.5198 0 23.6051C0.544068 23.6668 1.06798 23.6885 1.63388 23.6885C4.6783 23.6958 7.6365 22.6847 10.0317 20.8181C8.62015 20.7927 7.25184 20.3302 6.1178 19.4951C4.98376 18.6599 4.1406 17.4939 3.70604 16.1598C4.12417 16.2215 4.54397 16.2632 4.98393 16.2632C5.59013 16.2632 6.19968 16.1798 6.76558 16.0347C5.23373 15.7275 3.85629 14.9028 2.86747 13.7009C1.87865 12.4989 1.3395 10.9939 1.3417 9.44171V9.35831C2.24344 9.857 3.28959 10.1689 4.39788 10.2106C3.46942 9.59779 2.70811 8.76626 2.18188 7.79018C1.65564 6.8141 1.38085 5.72382 1.382 4.61661C1.382 3.36906 1.71616 2.22491 2.30221 1.22754C4.00182 3.30405 6.1216 5.00282 8.52429 6.21384C10.927 7.42487 13.559 8.12113 16.2498 8.25753C16.1457 7.75718 16.0819 7.23847 16.0819 6.7181C16.0815 5.83575 16.2561 4.96195 16.5959 4.14668C16.9356 3.3314 17.4338 2.59063 18.062 1.96671C18.6902 1.34279 19.436 0.847954 20.2568 0.510493C21.0777 0.173032 21.9574 -0.00043761 22.8458 8.29027e-07C24.7937 8.29027e-07 26.5518 0.810576 27.7877 2.12151C29.302 1.83066 30.7542 1.28161 32.0798 0.498688C31.5751 2.05115 30.5178 3.36757 29.1059 4.20132C30.449 4.04917 31.7615 3.69838 33 3.16058C32.075 4.50003 30.9288 5.6746 29.6097 6.63471Z" fill="#AD1AAF"/>
</svg>
