<svg width="38" height="27" viewBox="0 0 38 27" fill="none" xmlns="http://www.w3.org/2000/svg">
<path d="M37.2271 4.15445C37.0108 3.35751 36.5882 2.63072 36.0012 2.04643C35.4143 1.46214 34.6835 1.04072 33.8816 0.824112C30.9083 0.0132146 19.0132 1.43256e-05 19.0132 1.43256e-05C19.0132 1.43256e-05 7.11999 -0.0131867 4.14478 0.76188C3.34341 0.988453 2.61412 1.41583 2.02695 2.00299C1.43978 2.59015 1.01443 3.31738 0.791746 4.11485C0.00759778 7.06802 2.78182e-06 13.1931 2.78182e-06 13.1931C2.78182e-06 13.1931 -0.00759184 19.3484 0.77086 22.2714C1.20755 23.8875 2.48915 25.1642 4.1182 25.5998C7.12189 26.4107 18.9847 26.4239 18.9847 26.4239C18.9847 26.4239 30.8799 26.4371 33.8532 25.664C34.6553 25.4477 35.3868 25.0273 35.9752 24.4442C36.5636 23.8611 36.9886 23.1355 37.2081 22.3393C37.9941 19.388 37.9998 13.2648 37.9998 13.2648C37.9998 13.2648 38.0378 7.10762 37.2271 4.15445ZM15.2083 18.8675L15.2178 7.55267L25.1041 13.2195L15.2083 18.8675Z" fill="#AD1AAF"/>
</svg>
