<svg width="28" height="37" viewBox="0 0 28 37" fill="none" xmlns="http://www.w3.org/2000/svg">
<path d="M21.4375 19.6562C21.4375 20.1136 21.3348 20.5607 21.1426 20.941C20.9503 21.3213 20.6769 21.6177 20.3572 21.7927C20.0374 21.9677 19.6855 22.0135 19.3461 21.9243C19.0066 21.8351 18.6948 21.6148 18.45 21.2914C18.2053 20.968 18.0386 20.556 17.9711 20.1074C17.9036 19.6588 17.9382 19.1938 18.0707 18.7713C18.2031 18.3487 18.4274 17.9876 18.7152 17.7335C19.003 17.4794 19.3414 17.3438 19.6875 17.3438C20.1516 17.3438 20.5967 17.5874 20.9249 18.0211C21.2531 18.4547 21.4375 19.0429 21.4375 19.6562ZM25.8125 14.4531V26.0156C25.8125 27.2423 25.4437 28.4186 24.7874 29.286C24.131 30.1533 23.2407 30.6406 22.3125 30.6406H6.56248C5.63422 30.6406 4.74399 30.1533 4.08761 29.286C3.43123 28.4186 3.06248 27.2423 3.06248 26.0156V8.80484C3.04902 8.18638 3.1296 7.57064 3.29946 6.99407C3.46931 6.4175 3.72499 5.89183 4.05134 5.44818C4.3777 5.00452 4.7681 4.65191 5.19943 4.41121C5.63077 4.17051 6.09426 4.04662 6.56248 4.04688H21C21.3481 4.04688 21.6819 4.2296 21.9281 4.55486C22.1742 4.88012 22.3125 5.32127 22.3125 5.78125C22.3125 6.24124 22.1742 6.68238 21.9281 7.00764C21.6819 7.3329 21.3481 7.51563 21 7.51563H6.56248C6.44514 7.51554 6.32899 7.54665 6.22093 7.60709C6.11288 7.66753 6.01512 7.75608 5.93349 7.86746C5.85185 7.97884 5.78801 8.11078 5.74574 8.25543C5.70348 8.40008 5.68367 8.55448 5.68748 8.70945V8.72102C5.70586 9.02716 5.81218 9.31241 5.98464 9.51827C6.15711 9.72413 6.38264 9.83499 6.61498 9.82813H22.3125C23.2407 9.82813 24.131 10.3154 24.7874 11.1828C25.4437 12.0501 25.8125 13.2265 25.8125 14.4531ZM23.1875 14.4531C23.1875 14.1465 23.0953 13.8524 22.9312 13.6355C22.7671 13.4187 22.5445 13.2969 22.3125 13.2969H6.61498C6.30206 13.297 5.99039 13.2446 5.68748 13.1408V26.0156C5.68748 26.3223 5.77967 26.6164 5.94376 26.8332C6.10786 27.0501 6.33042 27.1719 6.56248 27.1719H22.3125C22.5445 27.1719 22.7671 27.0501 22.9312 26.8332C23.0953 26.6164 23.1875 26.3223 23.1875 26.0156V14.4531Z" fill="#F8F8F8"/>
</svg>
