<svg width="29" height="27" viewBox="0 0 29 27" fill="none" xmlns="http://www.w3.org/2000/svg">
<path d="M1.49108 6.73313C1.49108 9.02506 2.27429 10.6788 3.81717 11.6499C5.08224 12.4476 6.54821 12.5673 7.31101 12.5673C7.49622 12.5673 7.64533 12.5581 7.74892 12.5519C7.74892 12.5519 7.50721 14.0922 8.67496 15.614H8.6216C6.59843 15.614 0 16.0266 0 21.3315C0 26.7254 6.06007 27 7.27648 27C7.37223 27 7.42873 26.9969 7.42873 26.9969C7.44129 26.9969 7.52761 27 7.67672 27C8.45679 27 10.4737 26.9049 12.3462 26.0136C14.7758 24.863 16.0079 22.8549 16.0079 20.0536C16.0079 17.3475 14.1308 15.7367 12.7605 14.5585C11.9239 13.839 11.2004 13.2193 11.2004 12.6164C11.2004 12.0027 11.7293 11.541 12.3964 10.9565C13.4778 10.013 14.498 8.66761 14.498 6.12409C14.498 3.88892 14.2014 2.38705 12.3728 1.43438C12.5628 1.33926 13.2377 1.27023 13.5704 1.2242C14.5608 1.09227 16.0095 0.941932 16.0095 0.151875V0H8.79111C8.71891 0.00306818 1.49108 0.263864 1.49108 6.73313ZM13.1435 20.5599C13.2816 22.7168 11.3934 24.3077 8.55724 24.5086C5.6771 24.7157 3.30706 23.4486 3.16894 21.2932C3.10145 20.2561 3.56761 19.2436 4.47953 18.4352C5.404 17.6175 6.67377 17.1112 8.05498 17.0115C8.21822 17.0023 8.37988 16.9931 8.54155 16.9931C11.2082 16.9947 13.0132 18.5257 13.1435 20.5599ZM11.2585 5.2558C11.9663 7.69193 10.8975 10.2355 9.19291 10.7064C8.9967 10.7599 8.7939 10.7867 8.5902 10.7862C7.03006 10.7862 5.48404 9.2429 4.90958 7.11511C4.58939 5.92466 4.61608 4.87841 4.98335 3.87511C5.34278 2.88563 5.99258 2.22136 6.80875 1.99585C7.00495 1.94216 7.20742 1.91455 7.41303 1.91455C9.29651 1.91455 10.5082 2.67852 11.2585 5.2558ZM23.4822 10.4318V5.82955H20.3431V10.4318H15.6344V13.5H20.3431V18.1023H23.4822V13.5H28.1909V10.4318H23.4822Z" fill="#AD1AAF"/>
</svg>
