<svg width="18" height="18" viewBox="0 0 18 18" fill="none" xmlns="http://www.w3.org/2000/svg">
<g clip-path="url(#clip0_0_8)">
<path d="M8.68359 0.890625C8.66102 0.892266 8.63834 0.894047 8.61553 0.895969C7.62258 2.73977 7.49362 4.71359 7.6282 6.79997C7.76074 8.8538 8.15259 11.0026 8.18845 13.1836H9.81155C9.84741 11.0026 10.2393 8.8538 10.3718 6.79997C10.5064 4.71355 10.3774 2.73977 9.38447 0.895969C9.36179 0.894056 9.3391 0.892275 9.31641 0.890625V12.375H8.68359V0.890625ZM7.84705 1.01402C7.59357 1.06911 7.33511 1.14041 7.07737 1.22637L6.99307 1.32762C5.62226 2.97258 5.24429 4.26714 5.37746 5.66534C5.5106 7.06357 6.19555 8.59083 7.04071 10.563L7.19715 10.9658C7.22872 11.0779 7.34927 11.2871 7.46413 11.5094C7.33194 9.95106 7.0965 8.38703 6.99676 6.84075C6.86844 4.85196 6.97046 2.88015 7.84702 1.01402H7.84705ZM10.1529 1.01402C11.0295 2.88012 11.1315 4.85196 11.0032 6.84075C10.9035 8.38703 10.668 9.95102 10.5358 11.5094C10.6507 11.2871 10.7712 11.0779 10.8028 10.9658L10.9593 10.5629C11.8044 8.59083 12.4894 7.06357 12.6225 5.66534C12.7558 4.26717 12.3778 2.97261 11.007 1.32762L10.9226 1.22637C10.6649 1.14041 10.4064 1.06911 10.153 1.01402H10.1529ZM5.88867 1.73754C5.76059 1.80619 5.63478 1.879 5.51145 1.95586C4.43869 2.62639 3.69141 3.53325 3.69141 4.50005C3.69141 6.67095 4.46671 7.67796 5.44124 8.79171C5.53996 8.90456 5.6417 9.01917 5.74386 9.13484C5.23487 7.90472 4.85107 6.81196 4.74754 5.72538C4.62319 4.41926 4.93221 3.13911 5.88871 1.73754H5.88867ZM12.1113 1.73754C13.0678 3.13911 13.3768 4.41926 13.2525 5.72538C13.149 6.81196 12.7652 7.90472 12.2562 9.13484C12.3583 9.01917 12.4601 8.90456 12.5588 8.79171C13.5333 7.67796 14.3086 6.67095 14.3086 4.50005C14.3086 3.53325 13.5613 2.62636 12.4886 1.95589C12.3652 1.87902 12.2394 1.80617 12.1113 1.73754ZM7.875 13.8165V15.1172H8.62819V13.8165H7.875ZM9.37181 13.8165V15.1172H10.125V13.8165H9.37181ZM7.875 15.75V17.2969H10.125V15.75H7.875Z" fill="#F81DFB"/>
</g>
<defs>
<clipPath id="clip0_0_8">
<rect width="18" height="18" fill="white"/>
</clipPath>
</defs>
</svg>
